<svg width="305" height="77" viewBox="0 0 305 77" fill="none" xmlns="http://www.w3.org/2000/svg">
<path d="M0 38.5C0 17.237 17.237 0 38.5 0H266.5C287.763 0 305 17.237 305 38.5C305 59.763 287.763 77 266.5 77H38.5C17.237 77 0 59.763 0 38.5Z" fill="#7846BE"/>
<path d="M101.366 51V29.1818H103.909V51H101.366ZM102.659 25.4318C102.138 25.4318 101.693 25.2566 101.324 24.9062C100.955 24.5464 100.77 24.1155 100.77 23.6136C100.77 23.1117 100.955 22.6856 101.324 22.3352C101.693 21.9754 102.138 21.7955 102.659 21.7955C103.18 21.7955 103.625 21.9754 103.994 22.3352C104.364 22.6856 104.548 23.1117 104.548 23.6136C104.548 24.1155 104.364 24.5464 103.994 24.9062C103.625 25.2566 103.18 25.4318 102.659 25.4318ZM113.124 37.3636V51H110.596V29.1818H113.053V32.6051H113.281C113.792 31.4877 114.587 30.5928 115.667 29.9205C116.756 29.2386 118.101 28.8977 119.701 28.8977C121.169 28.8977 122.457 29.2055 123.565 29.821C124.682 30.4271 125.549 31.322 126.164 32.5057C126.789 33.6894 127.102 35.143 127.102 36.8665V51H124.573V37.0227C124.573 35.233 124.071 33.8172 123.067 32.7756C122.073 31.7339 120.738 31.2131 119.062 31.2131C117.916 31.2131 116.898 31.4593 116.008 31.9517C115.118 32.4441 114.412 33.1544 113.891 34.0824C113.38 35.0009 113.124 36.0947 113.124 37.3636ZM148.419 33.9688L146.104 34.6222C145.876 33.9687 145.554 33.3769 145.138 32.8466C144.721 32.3163 144.177 31.8949 143.504 31.5824C142.841 31.2699 142.018 31.1136 141.033 31.1136C139.555 31.1136 138.343 31.464 137.396 32.1648C136.449 32.8655 135.976 33.7699 135.976 34.8778C135.976 35.8153 136.298 36.5777 136.942 37.1648C137.595 37.7424 138.599 38.2017 139.953 38.5426L143.249 39.3523C145.076 39.7973 146.445 40.5028 147.354 41.4688C148.272 42.4347 148.732 43.6468 148.732 45.1051C148.732 46.3362 148.391 47.4299 147.709 48.3864C147.027 49.3428 146.075 50.0956 144.854 50.6449C143.642 51.1847 142.235 51.4545 140.635 51.4545C138.504 51.4545 136.748 50.9763 135.365 50.0199C133.982 49.054 133.097 47.6619 132.709 45.8438L135.138 45.2472C135.45 46.5445 136.061 47.5246 136.97 48.1875C137.889 48.8504 139.096 49.1818 140.592 49.1818C142.268 49.1818 143.608 48.8078 144.612 48.0597C145.616 47.3021 146.118 46.3551 146.118 45.2188C146.118 44.3381 145.824 43.5994 145.237 43.0028C144.65 42.3968 143.76 41.9517 142.567 41.6676L139.001 40.8153C137.107 40.3608 135.706 39.6411 134.797 38.6562C133.888 37.6714 133.433 36.4498 133.433 34.9915C133.433 33.7888 133.76 32.733 134.413 31.8239C135.067 30.9053 135.966 30.1856 137.112 29.6648C138.258 29.1439 139.565 28.8835 141.033 28.8835C143.031 28.8835 144.626 29.3381 145.82 30.2472C147.022 31.1468 147.889 32.3873 148.419 33.9688ZM162.862 29.1818V31.3835H152.45V29.1818H162.862ZM155.702 23.9545H158.245V45.304C158.245 46.2131 158.401 46.928 158.714 47.4489C159.026 47.9602 159.433 48.3248 159.935 48.5426C160.437 48.7509 160.972 48.8551 161.54 48.8551C161.872 48.8551 162.156 48.8362 162.393 48.7983C162.629 48.7509 162.838 48.7036 163.018 48.6562L163.558 50.9432C163.311 51.0379 163.008 51.1231 162.648 51.1989C162.289 51.2841 161.844 51.3267 161.313 51.3267C160.385 51.3267 159.49 51.1231 158.629 50.7159C157.776 50.3087 157.076 49.7027 156.526 48.8977C155.977 48.0928 155.702 47.0938 155.702 45.9006V23.9545ZM174.697 51.4972C173.381 51.4972 172.179 51.2415 171.089 50.7301C170 50.2093 169.134 49.4612 168.49 48.4858C167.846 47.5009 167.524 46.3078 167.524 44.9062C167.524 43.8267 167.728 42.9176 168.135 42.179C168.542 41.4403 169.12 40.8343 169.868 40.3608C170.616 39.8873 171.501 39.5133 172.524 39.2386C173.547 38.964 174.674 38.7509 175.905 38.5994C177.126 38.4479 178.159 38.3153 179.001 38.2017C179.854 38.0881 180.502 37.9081 180.947 37.6619C181.393 37.4157 181.615 37.018 181.615 36.4688V35.9574C181.615 34.4706 181.17 33.3011 180.28 32.4489C179.399 31.5871 178.13 31.1562 176.473 31.1562C174.901 31.1562 173.618 31.5019 172.624 32.1932C171.639 32.8845 170.947 33.6989 170.55 34.6364L168.149 33.7699C168.642 32.5767 169.323 31.625 170.195 30.9148C171.066 30.1951 172.041 29.679 173.121 29.3665C174.2 29.0445 175.294 28.8835 176.402 28.8835C177.235 28.8835 178.102 28.9924 179.001 29.2102C179.911 29.428 180.753 29.8068 181.53 30.3466C182.306 30.8769 182.936 31.6203 183.419 32.5767C183.902 33.5237 184.143 34.7263 184.143 36.1847V51H181.615V47.5483H181.459C181.156 48.1922 180.706 48.8172 180.109 49.4233C179.513 50.0294 178.765 50.5265 177.865 50.9148C176.965 51.303 175.91 51.4972 174.697 51.4972ZM175.038 49.1818C176.383 49.1818 177.548 48.8835 178.533 48.2869C179.518 47.6903 180.275 46.8996 180.805 45.9148C181.345 44.9205 181.615 43.8267 181.615 42.6335V39.4801C181.426 39.66 181.108 39.821 180.663 39.9631C180.228 40.1051 179.721 40.233 179.143 40.3466C178.575 40.4508 178.007 40.5407 177.439 40.6165C176.871 40.6922 176.359 40.7585 175.905 40.8153C174.674 40.9669 173.623 41.2036 172.751 41.5256C171.88 41.8475 171.213 42.2926 170.749 42.8608C170.285 43.4195 170.053 44.1392 170.053 45.0199C170.053 46.3456 170.526 47.3731 171.473 48.1023C172.42 48.822 173.608 49.1818 175.038 49.1818ZM193.398 21.9091V51H190.869V21.9091H193.398ZM202.616 21.9091V51H200.088V21.9091H202.616Z" fill="#262626"/>
</svg>
